<svg width="40" height="40" viewBox="0 0 40 40" fill="none" xmlns="http://www.w3.org/2000/svg">
<path d="M9.16699 20.0004H6.66699V11.6671H3.33366V8.33374H13.3337V11.6671H10.0003V16.3254L26.3553 11.9437L25.3887 8.33374H20.0003V5.00041H26.6303C27.0034 4.99217 27.3685 5.10941 27.6671 5.33333C27.9657 5.55726 28.1804 5.87491 28.277 6.23541L30.8653 15.8954L27.6453 16.7571L27.2187 15.1637L9.16699 20.0004ZM8.33366 31.6671C9.21771 31.6671 10.0656 31.3159 10.6907 30.6908C11.3158 30.0656 11.667 29.2178 11.667 28.3337C11.667 27.4497 11.3158 26.6018 10.6907 25.9767C10.0656 25.3516 9.21771 25.0004 8.33366 25.0004C7.4496 25.0004 6.60176 25.3516 5.97664 25.9767C5.35151 26.6018 5.00033 27.4497 5.00033 28.3337C5.00033 29.2178 5.35151 30.0656 5.97664 30.6908C6.60176 31.3159 7.4496 31.6671 8.33366 31.6671ZM8.33366 35.0004C6.56555 35.0004 4.86986 34.298 3.61961 33.0478C2.36937 31.7975 1.66699 30.1018 1.66699 28.3337C1.66699 26.5656 2.36937 24.8699 3.61961 23.6197C4.86986 22.3695 6.56555 21.6671 8.33366 21.6671C10.1018 21.6671 11.7975 22.3695 13.0477 23.6197C14.2979 24.8699 15.0003 26.5656 15.0003 28.3337C15.0003 30.1018 14.2979 31.7975 13.0477 33.0478C11.7975 34.298 10.1018 35.0004 8.33366 35.0004ZM30.0003 31.6671C31.3264 31.6671 32.5982 31.1403 33.5359 30.2026C34.4735 29.2649 35.0003 27.9932 35.0003 26.6671C35.0003 25.341 34.4735 24.0692 33.5359 23.1315C32.5982 22.1939 31.3264 21.6671 30.0003 21.6671C28.6742 21.6671 27.4025 22.1939 26.4648 23.1315C25.5271 24.0692 25.0003 25.341 25.0003 26.6671C25.0003 27.9932 25.5271 29.2649 26.4648 30.2026C27.4025 31.1403 28.6742 31.6671 30.0003 31.6671ZM30.0003 35.0004C27.7902 35.0004 25.6706 34.1224 24.1078 32.5596C22.545 30.9968 21.667 28.8772 21.667 26.6671C21.667 24.4569 22.545 22.3373 24.1078 20.7745C25.6706 19.2117 27.7902 18.3337 30.0003 18.3337C32.2105 18.3337 34.3301 19.2117 35.8929 20.7745C37.4557 22.3373 38.3337 24.4569 38.3337 26.6671C38.3337 28.8772 37.4557 30.9968 35.8929 32.5596C34.3301 34.1224 32.2105 35.0004 30.0003 35.0004Z" fill="#2B4BF2"/>
</svg>
