<svg width="40" height="40" viewBox="0 0 40 40" fill="none" xmlns="http://www.w3.org/2000/svg">
<path d="M25.833 11.5615C27.6071 12.5852 29.0803 14.0581 30.1043 15.832C31.1283 17.6059 31.6671 19.6182 31.6663 21.6665V34.9998H24.7163C24.372 35.9757 23.7334 36.8208 22.8887 37.4185C22.0439 38.0163 21.0345 38.3373 19.9997 38.3373C18.9648 38.3373 17.9554 38.0163 17.1107 37.4185C16.2659 36.8208 15.6273 35.9757 15.283 34.9998H8.33301V21.6665C8.33226 19.6182 8.87101 17.6059 9.89503 15.832C10.9191 14.0581 12.3922 12.5852 14.1663 11.5615C13.8925 11.0696 13.6825 10.5448 13.5413 9.99983H8.33301V6.6665H13.543C13.9137 5.2361 14.749 3.96929 15.9176 3.06495C17.0862 2.16061 18.522 1.66992 19.9997 1.66992C21.4773 1.66992 22.9132 2.16061 24.0818 3.06495C25.2504 3.96929 26.0856 5.2361 26.4563 6.6665H31.6663V9.99983H26.4563C26.3147 10.5498 26.103 11.0748 25.8347 11.5615H25.833ZM23.4113 14.0615C22.413 14.6582 21.2463 14.9998 19.9997 14.9998C18.7985 15.0016 17.6193 14.6773 16.588 14.0615C15.1218 14.7197 13.8771 15.7877 13.0039 17.137C12.1306 18.4863 11.6662 20.0593 11.6663 21.6665V31.6665H14.9997V24.9998C14.9997 23.6737 15.5265 22.402 16.4641 21.4643C17.4018 20.5266 18.6736 19.9998 19.9997 19.9998C21.3258 19.9998 22.5975 20.5266 23.5352 21.4643C24.4729 22.402 24.9997 23.6737 24.9997 24.9998V31.6665H28.333V21.6665C28.3332 20.0593 27.8687 18.4863 26.9955 17.137C26.1223 15.7877 24.8776 14.7197 23.4113 14.0615ZM19.9997 23.3332C19.5576 23.3332 19.1337 23.5088 18.8212 23.8213C18.5086 24.1339 18.333 24.5578 18.333 24.9998V33.3332C18.333 33.7752 18.5086 34.1991 18.8212 34.5117C19.1337 34.8242 19.5576 34.9998 19.9997 34.9998C20.4417 34.9998 20.8656 34.8242 21.1782 34.5117C21.4907 34.1991 21.6663 33.7752 21.6663 33.3332V24.9998C21.6663 24.5578 21.4907 24.1339 21.1782 23.8213C20.8656 23.5088 20.4417 23.3332 19.9997 23.3332ZM19.9997 11.6665C20.8837 11.6665 21.7316 11.3153 22.3567 10.6902C22.9818 10.0651 23.333 9.21722 23.333 8.33316C23.333 7.44911 22.9818 6.60126 22.3567 5.97614C21.7316 5.35102 20.8837 4.99983 19.9997 4.99983C19.1156 4.99983 18.2678 5.35102 17.6427 5.97614C17.0175 6.60126 16.6663 7.44911 16.6663 8.33316C16.6663 9.21722 17.0175 10.0651 17.6427 10.6902C18.2678 11.3153 19.1156 11.6665 19.9997 11.6665Z" fill="#2B4BF2"/>
</svg>
