<svg width="40" height="40" viewBox="0 0 40 40" fill="none" xmlns="http://www.w3.org/2000/svg">
<path d="M31.6663 33.3337H8.33301V35.0003C8.33301 35.4424 8.15741 35.8663 7.84485 36.1788C7.53229 36.4914 7.10837 36.667 6.66634 36.667H4.99967C4.55765 36.667 4.13372 36.4914 3.82116 36.1788C3.5086 35.8663 3.33301 35.4424 3.33301 35.0003V18.3337L7.46634 8.68699C7.72355 8.08699 8.15127 7.57572 8.69643 7.21663C9.2416 6.85753 9.8802 6.66641 10.533 6.66699H29.4663C30.1186 6.66707 30.7565 6.85849 31.301 7.21754C31.8455 7.5766 32.2727 8.08752 32.5297 8.68699L36.6663 18.3337V35.0003C36.6663 35.4424 36.4907 35.8663 36.1782 36.1788C35.8656 36.4914 35.4417 36.667 34.9997 36.667H33.333C32.891 36.667 32.4671 36.4914 32.1545 36.1788C31.8419 35.8663 31.6663 35.4424 31.6663 35.0003V33.3337ZM33.333 21.667H6.66634V30.0003H33.333V21.667ZM6.95967 18.3337H33.0397L29.468 10.0003H10.533L6.96134 18.3337H6.95967ZM10.833 28.3337C10.17 28.3337 9.53408 28.0703 9.06524 27.6014C8.5964 27.1326 8.33301 26.4967 8.33301 25.8337C8.33301 25.1706 8.5964 24.5347 9.06524 24.0659C9.53408 23.5971 10.17 23.3337 10.833 23.3337C11.496 23.3337 12.1319 23.5971 12.6008 24.0659C13.0696 24.5347 13.333 25.1706 13.333 25.8337C13.333 26.4967 13.0696 27.1326 12.6008 27.6014C12.1319 28.0703 11.496 28.3337 10.833 28.3337V28.3337ZM29.1663 28.3337C28.5033 28.3337 27.8674 28.0703 27.3986 27.6014C26.9297 27.1326 26.6663 26.4967 26.6663 25.8337C26.6663 25.1706 26.9297 24.5347 27.3986 24.0659C27.8674 23.5971 28.5033 23.3337 29.1663 23.3337C29.8294 23.3337 30.4653 23.5971 30.9341 24.0659C31.4029 24.5347 31.6663 25.1706 31.6663 25.8337C31.6663 26.4967 31.4029 27.1326 30.9341 27.6014C30.4653 28.0703 29.8294 28.3337 29.1663 28.3337V28.3337Z" fill="#2B4BF2"/>
</svg>
