<svg width="24" height="24" viewBox="0 0 24 24" fill="none" xmlns="http://www.w3.org/2000/svg">
<path d="M4 18H9.5V19.25C9.5 19.9793 9.21027 20.6788 8.69454 21.1945C8.17882 21.7102 7.47935 22 6.75 22C6.02065 22 5.32118 21.7102 4.80546 21.1945C4.28973 20.6788 4 19.9793 4 19.25V18ZM8.058 14L8.103 13.868C8.87 11.762 9 11.37 9 11C9 10.25 8.797 9.35696 8.472 8.72696C8.23 8.25696 8.06 8.11996 8 8.11996C6.72 8.11996 5.5 9.48396 5.5 11C5.5 11.959 5.575 12.773 5.727 13.758L5.765 14H8.058ZM8 6.11996C10 6.11996 11 8.99996 11 11C11 12 10.5 13 10 14.5L9.5 16H4C4 15 3.5 13.5 3.5 11C3.5 8.49996 5.498 6.11996 8 6.11996ZM20.054 14.098L19.837 15.329C19.7104 16.0473 19.3035 16.6859 18.7061 17.1043C18.1086 17.5227 17.3693 17.6866 16.651 17.56C15.9327 17.4333 15.2941 17.0265 14.8757 16.429C14.4573 15.8315 14.2934 15.0923 14.42 14.374L14.638 13.144L20.054 14.098ZM19.004 9.85196C19.169 9.35196 19.305 8.95696 19.307 8.95196C19.509 8.29396 19.668 7.64896 19.792 6.94396C20.055 5.45196 19.09 3.89696 17.83 3.67396C17.771 3.66396 17.58 3.76896 17.26 4.18896C16.83 4.75396 16.476 5.59896 16.345 6.33596C16.287 6.66596 16.296 6.74096 16.615 8.59896C16.66 8.85496 16.697 9.08496 16.731 9.31596L16.751 9.45396L19.005 9.85196H19.004ZM18.178 1.70496C20.642 2.13896 22.196 4.82896 21.762 7.29096C21.328 9.75396 20.575 11.144 20.402 12.129L14.985 11.174L14.753 9.60996C14.521 8.04596 14.203 6.97396 14.376 5.98996C14.723 4.01996 16.208 1.35796 18.178 1.70496V1.70496Z" fill="#68718E"/>
</svg>
