<svg width="24" height="24" viewBox="0 0 24 24" fill="none" xmlns="http://www.w3.org/2000/svg">
<path d="M17.084 15.812C18.0244 14.8184 18.653 13.571 18.8922 12.224C19.1314 10.877 18.9706 9.48944 18.4297 8.23283C17.8888 6.97621 16.9916 5.90563 15.8489 5.1534C14.7062 4.40118 13.3681 4.00029 12 4.00029C10.6319 4.00029 9.29384 4.40118 8.15112 5.1534C7.00841 5.90563 6.11117 6.97621 5.5703 8.23283C5.02943 9.48944 4.86863 10.877 5.1078 12.224C5.34696 13.571 5.9756 14.8184 6.916 15.812C7.45567 14.9509 8.20536 14.241 9.09467 13.7492C9.98398 13.2573 10.9837 12.9995 12 13C13.0163 12.9995 14.016 13.2573 14.9053 13.7492C15.7946 14.241 16.5443 14.9509 17.084 15.812V15.812ZM8.385 17.285L12 20.899L15.615 17.285C15.2908 16.6006 14.779 16.0223 14.139 15.6173C13.4991 15.2123 12.7573 14.9973 12 14.9973C11.2427 14.9973 10.5009 15.2123 9.86096 15.6173C9.22101 16.0223 8.70919 16.6006 8.385 17.285V17.285ZM12 23.728L5.636 17.364C4.37734 16.1054 3.52019 14.5017 3.17293 12.7559C2.82567 11.0101 3.00391 9.20047 3.6851 7.55595C4.36629 5.91142 5.51984 4.50582 6.99988 3.51689C8.47992 2.52796 10.22 2.00012 12 2.00012C13.78 2.00012 15.5201 2.52796 17.0001 3.51689C18.4802 4.50582 19.6337 5.91142 20.3149 7.55595C20.9961 9.20047 21.1743 11.0101 20.8271 12.7559C20.4798 14.5017 19.6227 16.1054 18.364 17.364L12 23.728ZM12 10C12.2652 10 12.5196 9.89469 12.7071 9.70715C12.8946 9.51961 13 9.26526 13 9.00004C13 8.73483 12.8946 8.48047 12.7071 8.29294C12.5196 8.1054 12.2652 8.00004 12 8.00004C11.7348 8.00004 11.4804 8.1054 11.2929 8.29294C11.1054 8.48047 11 8.73483 11 9.00004C11 9.26526 11.1054 9.51961 11.2929 9.70715C11.4804 9.89469 11.7348 10 12 10V10ZM12 12C11.2044 12 10.4413 11.684 9.87868 11.1214C9.31607 10.5588 9 9.79569 9 9.00004C9 8.20439 9.31607 7.44133 9.87868 6.87872C10.4413 6.31611 11.2044 6.00004 12 6.00004C12.7957 6.00004 13.5587 6.31611 14.1213 6.87872C14.6839 7.44133 15 8.20439 15 9.00004C15 9.79569 14.6839 10.5588 14.1213 11.1214C13.5587 11.684 12.7957 12 12 12Z" fill="#68718E"/>
</svg>
