<svg width="24" height="24" viewBox="0 0 24 24" fill="none" xmlns="http://www.w3.org/2000/svg">
<path d="M4.96535 5.09605L8.51135 17.506L11.5513 11.426L17.1883 9.17105L4.96535 5.09605ZM2.89935 2.30005L21.7053 8.56805C21.8027 8.60031 21.8877 8.66172 21.949 8.74395C22.0103 8.82618 22.0448 8.92526 22.0478 9.02775C22.0509 9.13025 22.0223 9.23121 21.9661 9.31694C21.9098 9.40268 21.8286 9.46904 21.7333 9.50705L13.0003 13L8.57535 21.85C8.53032 21.9402 8.45912 22.0146 8.37107 22.0635C8.28303 22.1125 8.18225 22.1337 8.08193 22.1244C7.98162 22.1151 7.88646 22.0758 7.80891 22.0114C7.73136 21.9471 7.67505 21.8609 7.64735 21.764L2.26035 2.91105C2.23539 2.82346 2.23483 2.73073 2.25873 2.64285C2.28263 2.55497 2.33007 2.47528 2.39595 2.4124C2.46182 2.34951 2.54361 2.30581 2.63251 2.28601C2.7214 2.26621 2.81401 2.27106 2.90035 2.30005H2.89935Z" fill="#68718E"/>
</svg>
