<svg width="40" height="40" viewBox="0 0 40 40" fill="none" xmlns="http://www.w3.org/2000/svg">
<g clip-path="url(#clip0_37695_36966)">
<path d="M3.58698 17.7155L3.71787 21.0276L26.4145 20.2804L26.4662 21.929L29.7979 21.8251L30.5594 5.11143C30.5476 4.73841 30.411 4.38012 30.1715 4.09396C29.9319 3.8078 29.6032 3.61033 29.2381 3.53318L22.7831 2.01986L22.0223 5.2652L27.2683 6.4951L26.3089 16.9483L9.38554 17.4812L3.58698 17.7155Z" fill="#2B4BF2"/>
</g>
<path fill-rule="evenodd" clip-rule="evenodd" d="M27.3811 36.1909C25.8024 36.1909 24.2884 35.5638 23.1721 34.4475C22.0558 33.3312 21.4287 31.8172 21.4287 30.2385C21.4287 28.6599 22.0558 27.1458 23.1721 26.0295C24.2884 24.9133 25.8024 24.2861 27.3811 24.2861C28.9598 24.2861 30.4738 24.9133 31.5901 26.0295C32.7064 27.1458 33.3335 28.6599 33.3335 30.2385C33.3335 31.8172 32.7064 33.3312 31.5901 34.4475C30.4738 35.5638 28.9598 36.1909 27.3811 36.1909ZM27.3815 33.2151C28.1708 33.2151 28.9278 32.9015 29.486 32.3434C30.0441 31.7852 30.3577 31.0282 30.3577 30.2389C30.3577 29.4496 30.0441 28.6925 29.486 28.1344C28.9278 27.5763 28.1708 27.2627 27.3815 27.2627C26.5921 27.2627 25.8351 27.5763 25.277 28.1344C24.7188 28.6925 24.4053 29.4496 24.4053 30.2389C24.4053 31.0282 24.7188 31.7852 25.277 32.3434C25.8351 32.9015 26.5921 33.2151 27.3815 33.2151Z" fill="#2B4BF2"/>
<path fill-rule="evenodd" clip-rule="evenodd" d="M9.80437 36.1908C8.03626 36.1908 6.34056 35.4884 5.09032 34.2382C3.84008 32.9879 3.1377 31.2922 3.1377 29.5241C3.1377 27.756 3.84008 26.0603 5.09032 24.81C6.34056 23.5598 8.03626 22.8574 9.80437 22.8574C11.5725 22.8574 13.2682 23.5598 14.5184 24.81C15.7687 26.0603 16.4711 27.756 16.4711 29.5241C16.4711 31.2922 15.7687 32.9879 14.5184 34.2382C13.2682 35.4884 11.5725 36.1908 9.80437 36.1908ZM9.80502 32.8581C10.6891 32.8581 11.5369 32.5069 12.162 31.8818C12.7872 31.2566 13.1384 30.4088 13.1384 29.5247C13.1384 28.6407 12.7872 27.7928 12.162 27.1677C11.5369 26.5426 10.6891 26.1914 9.80502 26.1914C8.92096 26.1914 8.07311 26.5426 7.44799 27.1677C6.82287 27.7928 6.47168 28.6407 6.47168 29.5247C6.47168 30.4088 6.82287 31.2566 7.44799 31.8818C8.07311 32.5069 8.92096 32.8581 9.80502 32.8581Z" fill="#2B4BF2"/>
<defs>
<clipPath id="clip0_37695_36966">
<rect width="40" height="40" fill="white"/>
</clipPath>
</defs>
</svg>
