<svg width="40" height="40" viewBox="0 0 40 40" fill="none" xmlns="http://www.w3.org/2000/svg">
<path d="M28.6667 33.3333L31.6667 35.8333V36.6667H8.33333V35.8333L11.3333 33.3333H8.33333C7.44928 33.3333 6.60143 32.9821 5.97631 32.357C5.35119 31.7319 5 30.8841 5 30V11.6667C5 9.89856 5.70238 8.20286 6.95262 6.95262C8.20286 5.70238 9.89856 5 11.6667 5H28.3333C30.1014 5 31.7971 5.70238 33.0474 6.95262C34.2976 8.20286 35 9.89856 35 11.6667V30C35 30.8841 34.6488 31.7319 34.0237 32.357C33.3986 32.9821 32.5507 33.3333 31.6667 33.3333H28.6667ZM21.6667 8.33333V18.3333H31.6667V11.6667C31.6667 10.7826 31.3155 9.93477 30.6904 9.30964C30.0652 8.68452 29.2174 8.33333 28.3333 8.33333H21.6667ZM18.3333 8.33333H11.6667C10.7826 8.33333 9.93477 8.68452 9.30964 9.30964C8.68452 9.93477 8.33333 10.7826 8.33333 11.6667V18.3333H18.3333V8.33333ZM31.6667 21.6667H8.33333V30H31.6667V21.6667ZM12.5 28.3333C11.837 28.3333 11.2011 28.0699 10.7322 27.6011C10.2634 27.1323 10 26.4964 10 25.8333C10 25.1703 10.2634 24.5344 10.7322 24.0656C11.2011 23.5967 11.837 23.3333 12.5 23.3333C13.163 23.3333 13.7989 23.5967 14.2678 24.0656C14.7366 24.5344 15 25.1703 15 25.8333C15 26.4964 14.7366 27.1323 14.2678 27.6011C13.7989 28.0699 13.163 28.3333 12.5 28.3333V28.3333ZM27.5 28.3333C26.837 28.3333 26.2011 28.0699 25.7322 27.6011C25.2634 27.1323 25 26.4964 25 25.8333C25 25.1703 25.2634 24.5344 25.7322 24.0656C26.2011 23.5967 26.837 23.3333 27.5 23.3333C28.163 23.3333 28.7989 23.5967 29.2678 24.0656C29.7366 24.5344 30 25.1703 30 25.8333C30 26.4964 29.7366 27.1323 29.2678 27.6011C28.7989 28.0699 28.163 28.3333 27.5 28.3333V28.3333Z" fill="#2B4BF2"/>
</svg>
