<svg width="34" height="34" viewBox="0 0 34 34" fill="none" xmlns="http://www.w3.org/2000/svg">
<path d="M14.1797 12.8276L11.8007 13.6934V18.3006H9.20068V11.8656H9.22018L16.0686 9.37219C16.3858 9.25129 16.7316 9.19019 17.0852 9.20189C17.7917 9.2195 18.4753 9.45682 19.0407 9.88085C19.6062 10.3049 20.0254 10.8946 20.2403 11.5679C20.4821 12.3258 20.7031 12.838 20.9033 13.1045C21.5083 13.9113 22.2931 14.566 23.1952 15.0166C24.0974 15.4673 25.0922 15.7014 26.1007 15.7006V18.3006C24.7582 18.302 23.432 18.0058 22.2177 17.4333C21.0034 16.8608 19.9311 16.0261 19.0781 14.9895L18.3228 19.2756L20.9007 21.7716V31.3006H18.3007V23.5188L15.6357 20.9357L14.4046 26.5231L5.44238 24.9436L5.89478 22.3826L12.296 23.511L14.1797 12.8276ZM18.9507 8.55059C18.2611 8.55059 17.5998 8.27666 17.1122 7.78906C16.6246 7.30147 16.3507 6.64015 16.3507 5.95059C16.3507 5.26102 16.6246 4.5997 17.1122 4.11211C17.5998 3.62451 18.2611 3.35059 18.9507 3.35059C19.6402 3.35059 20.3016 3.62451 20.7892 4.11211C21.2768 4.5997 21.5507 5.26102 21.5507 5.95059C21.5507 6.64015 21.2768 7.30147 20.7892 7.78906C20.3016 8.27666 19.6402 8.55059 18.9507 8.55059Z" fill="#2B4BF2"/>
</svg>
